<?xml version="1.0" encoding="UTF-8"?>
<svg id="Layer_1" data-name="Layer 1" xmlns="http://www.w3.org/2000/svg" xmlns:xlink="http://www.w3.org/1999/xlink" viewBox="0 0 480.29 599.21">
  <defs>
    <style>
      .cls-1 {
        fill: url(#Gold_Radial);
      }

      .cls-1, .cls-2, .cls-3 {
        stroke-width: 0px;
      }

      .cls-2 {
        fill: url(#Gold_Radial-2);
      }

      .cls-3 {
        fill: #102d4f;
      }
    </style>
    <radialGradient id="Gold_Radial" data-name="Gold Radial" cx="245.66" cy="316.95" fx="245.66" fy="316.95" r="259.54" gradientUnits="userSpaceOnUse">
      <stop offset="0" stop-color="#fcf8cd"/>
      <stop offset=".11" stop-color="#f8efbb"/>
      <stop offset=".33" stop-color="#eed98f"/>
      <stop offset=".37" stop-color="#edd586"/>
      <stop offset=".69" stop-color="#e9ba1f"/>
      <stop offset="1" stop-color="#c1912d"/>
    </radialGradient>
    <radialGradient id="Gold_Radial-2" data-name="Gold Radial" cx="161.74" cy="403.03" fx="161.74" fy="403.03" r="169.65" xlink:href="#Gold_Radial"/>
  </defs>
  <polygon class="cls-1" points="480.29 599.21 431.15 598.23 11.04 38.22 45.73 34.69 480.29 599.21"/>
  <polygon class="cls-2" points="323.47 225.82 266.17 225.82 0 578.57 41.62 580.24 323.47 225.82"/>
  <polygon class="cls-3" points="241.03 176.43 218.48 203.91 112.04 57.04 168.99 75.51 241.03 176.43"/>
  <polygon class="cls-3" points="240.22 176.61 218.92 146.13 319 10.87 366.22 8.45 240.22 176.61"/>
  <polygon class="cls-3" points="293.9 193.47 251.27 193.47 391.21 2.49 437.99 0 293.9 193.47"/>
  <polygon class="cls-3" points="246.41 424.7 224.41 397.63 100.31 562.43 140.71 561.52 246.41 424.7"/>
  <polygon class="cls-3" points="246.41 424.7 224.9 452.54 330.07 595.72 374.18 595.72 246.41 424.7"/>
</svg>