<?xml version="1.0" encoding="UTF-8"?>
<svg version="1.1" xmlns="http://www.w3.org/2000/svg" width="2002" height="2498">
<path d="M0 0 C3.50948065 -0.26906519 6.02053663 -0.41805852 8.90820312 1.75610352 C10.65082866 3.76525441 12.10857564 5.82997687 13.56445312 8.05541992 C14.6747043 9.62733541 15.78538549 11.19894727 16.89648438 12.77026367 C17.43225098 13.55256348 17.96801758 14.33486328 18.52001953 15.14086914 C20.65579582 18.22062748 22.94091027 21.16890422 25.25195312 24.11791992 C27.64040886 27.21946196 30.02858009 30.3211835 32.41210938 33.42651367 C37.21010072 39.67560484 42.03456177 45.90316409 46.87695312 52.11791992 C53.16140253 60.18547072 59.3809125 68.30109271 65.58447266 76.4309082 C69.39698852 81.42076317 73.23297493 86.3926236 77.06445312 91.36791992 C78.73140605 93.53436643 80.39792726 95.70114489 82.06445312 97.86791992 C82.8977786 98.9512593 83.73111192 100.03459264 84.56445312 101.11791992 C129.56445313 159.61791992 129.56445313 159.61791992 130.81347656 161.24169922 C131.65000223 162.32914993 132.48659115 163.41655199 133.32324219 164.50390625 C135.35824601 167.1488578 137.39201845 169.79473104 139.42382812 172.44213867 C144.21820408 178.68579494 149.03856401 184.90830059 153.87695312 191.11791992 C160.16140253 199.18547072 166.3809125 207.30109271 172.58447266 215.4309082 C176.39698852 220.42076317 180.23297493 225.3926236 184.06445312 230.36791992 C185.73140605 232.53436643 187.39792726 234.70114489 189.06445312 236.86791992 C189.8977786 237.9512593 190.73111192 239.03459264 191.56445312 240.11791992 C236.56445312 298.61791992 236.56445312 298.61791992 237.81347656 300.24169922 C238.65000223 301.32914993 239.48659115 302.41655199 240.32324219 303.50390625 C242.35824601 306.1488578 244.39201845 308.79473104 246.42382812 311.44213867 C251.21820408 317.68579494 256.03856401 323.90830059 260.87695312 330.11791992 C267.16140253 338.18547072 273.3809125 346.30109271 279.58447266 354.4309082 C283.39698852 359.42076317 287.23297493 364.3926236 291.06445312 369.36791992 C292.73140605 371.53436643 294.39792726 373.70114489 296.06445312 375.86791992 C296.8977786 376.9512593 297.73111192 378.03459264 298.56445312 379.11791992 C343.56445313 437.61791992 343.56445313 437.61791992 344.81347656 439.24169922 C345.65000223 440.32914993 346.48659115 441.41655199 347.32324219 442.50390625 C349.35824601 445.1488578 351.39201845 447.79473104 353.42382812 450.44213867 C358.21820408 456.68579494 363.03856401 462.90830059 367.87695312 469.11791992 C374.16140253 477.18547072 380.3809125 485.30109271 386.58447266 493.4309082 C390.39698852 498.42076317 394.23297493 503.3926236 398.06445312 508.36791992 C399.73140605 510.53436643 401.39792726 512.70114489 403.06445312 514.86791992 C403.8977786 515.9512593 404.73111192 517.03459264 405.56445312 518.11791992 C450.56445312 576.61791992 450.56445312 576.61791992 451.81347656 578.24169922 C452.65000223 579.32914993 453.48659115 580.41655199 454.32324219 581.50390625 C456.35824601 584.1488578 458.39201845 586.79473104 460.42382812 589.44213867 C465.21820408 595.68579494 470.03856401 601.90830059 474.87695312 608.11791992 C481.16140253 616.18547072 487.3809125 624.30109271 493.58447266 632.4309082 C497.39698852 637.42076317 501.23297493 642.3926236 505.06445312 647.36791992 C506.73140605 649.53436643 508.39792726 651.70114489 510.06445312 653.86791992 C510.8977786 654.9512593 511.73111192 656.03459264 512.56445312 657.11791992 C567.56445313 728.61791993 567.56445313 728.61791993 568.81347656 730.24169922 C569.65000223 731.32914993 570.48659115 732.41655199 571.32324219 733.50390625 C573.35824601 736.1488578 575.39201845 738.79473104 577.42382812 741.44213867 C582.21820408 747.68579494 587.03856401 753.90830059 591.87695312 760.11791992 C598.16140253 768.18547072 604.3809125 776.30109271 610.58447266 784.4309082 C614.39698852 789.42076317 618.23297493 794.3926236 622.06445312 799.36791992 C623.73140605 801.53436643 625.39792726 803.70114489 627.06445312 805.86791992 C627.8977786 806.9512593 628.73111192 808.03459264 629.56445312 809.11791992 C674.56445313 867.61791993 674.56445313 867.61791993 675.81347656 869.24169922 C676.65000223 870.32914993 677.48659115 871.41655199 678.32324219 872.50390625 C680.35824601 875.1488578 682.39201845 877.79473104 684.42382812 880.44213867 C689.21820408 886.68579494 694.03856401 892.90830059 698.87695312 899.11791992 C705.16140253 907.18547072 711.3809125 915.30109271 717.58447266 923.4309082 C721.39698852 928.42076317 725.23297493 933.3926236 729.06445312 938.36791992 C730.73140605 940.53436643 732.39792726 942.70114489 734.06445312 944.86791992 C734.8977786 945.9512593 735.73111192 947.03459264 736.56445312 948.11791992 C741.56445312 954.61791992 746.56445313 961.11791992 751.56445312 967.61791992 C751.97751709 968.15489502 752.39058105 968.69187012 752.81616211 969.24511719 C753.64383033 970.32110207 754.4714674 971.39711092 755.29907227 972.47314453 C757.46881793 975.29411341 759.63921216 978.11458017 761.81054688 980.93432617 C762.26107422 981.51956055 762.71160156 982.10479492 763.17578125 982.70776367 C764.42887425 984.33549273 765.68220326 985.96304008 766.93554688 987.59057617 C768.23185292 989.28172039 769.50247347 990.99351604 770.72460938 992.73901367 C771.16675781 993.27655273 771.60890625 993.8140918 772.06445312 994.36791992 C772.72445312 994.36791992 773.38445313 994.36791992 774.06445312 994.36791992 C775.41316638 992.90617666 775.41316638 992.90617666 776.75976562 990.94995117 C777.30238037 990.20108643 777.84499512 989.45222168 778.40405273 988.68066406 C778.99323486 987.8555835 779.58241699 987.03050293 780.18945312 986.18041992 C781.46261988 984.42407038 782.73741936 982.66890347 784.01367188 980.91479492 C784.67931152 979.99891602 785.34495117 979.08303711 786.03076172 978.1394043 C789.29503918 973.69089557 792.64652972 969.31035938 796.00195312 964.93041992 C801.2248094 958.10222388 806.41612082 951.25249134 811.56445312 944.36791992 C817.43064271 936.52541634 823.35165107 928.72634613 829.29492188 920.94213867 C833.72463269 915.136795 838.12072499 909.30783185 842.49145508 903.45800781 C846.60388663 897.96212201 850.77040976 892.50842755 854.93945312 887.05541992 C860.10935274 880.28991775 865.21805847 873.48520755 870.25195312 866.61791992 C876.17109928 858.54476988 882.21699441 850.5776901 888.31787109 842.64135742 C898.5860942 829.2757307 908.74425933 815.83864021 918.69262695 802.23291016 C919.14532959 801.61746338 919.59803223 801.0020166 920.06445312 800.36791992 C920.39238515 799.6793755 920.72031717 798.99083107 921.05818653 798.28142166 C924.36564531 795.12689168 928.1397069 795.8315243 932.5365448 795.88690186 C934.01046856 795.88177531 934.01046856 795.88177531 935.51416856 795.87654519 C938.82183131 795.86993257 942.12869075 795.89199864 945.4362793 795.91381836 C947.80122356 795.9149461 950.16616922 795.91431441 952.53111267 795.91204834 C958.29601591 795.91101705 964.06065404 795.92839549 969.82549664 795.95379898 C976.5324748 795.98236775 983.239415 795.9883774 989.9464455 795.99295166 C1001.90763107 796.00170932 1013.86870762 796.0283376 1025.82983398 796.06616211 C1037.44994562 796.10287006 1049.07002765 796.13118775 1060.69018555 796.14819336 C1061.40627632 796.14924425 1062.12236708 796.15029515 1062.86015757 796.15137789 C1066.45252258 796.15659798 1070.0448878 796.16165283 1073.63725317 796.1666255 C1103.44639621 796.20810219 1133.25541193 796.2788604 1163.06445312 796.36791992 C1161.45667087 800.69220601 1159.29920177 803.7055162 1156.25195312 807.11791992 C1151.88030157 812.14193737 1147.75932066 817.29936076 1143.75195312 822.61791992 C1138.71568264 829.28452398 1133.49897785 835.76903263 1128.16162109 842.19628906 C1122.66629833 848.82119743 1117.35147588 855.57647573 1112.06445312 862.36791992 C1105.76114329 870.44902702 1099.3831604 878.46011106 1092.90527344 886.40209961 C1087.53932127 892.99091565 1082.29283658 899.66977128 1077.06445312 906.36791992 C1070.75827513 914.44684488 1064.38321922 922.46003895 1057.90527344 930.40209961 C1052.53932127 936.99091565 1047.29283658 943.66977128 1042.06445312 950.36791992 C1036.34276909 957.69804222 1030.57866107 964.9838658 1024.68945312 972.18041992 C1020.22285644 977.64091532 1015.88377495 983.18005701 1011.62695312 988.80541992 C1006.62916036 995.40607839 1001.44987891 1001.82787256 996.16113281 1008.19702148 C990.66577508 1014.82152028 985.35129381 1021.5767096 980.06445312 1028.36791992 C973.76114329 1036.44902702 967.3831604 1044.46011106 960.90527344 1052.40209961 C955.53932127 1058.99091565 950.29283658 1065.66977128 945.06445312 1072.36791992 C938.75827513 1080.44684488 932.38321922 1088.46003895 925.90527344 1096.40209961 C920.99825728 1102.42739126 916.18989116 1108.52596019 911.40722656 1114.65014648 C909.1321138 1117.56063619 906.84777131 1120.46386637 904.56445312 1123.36791992 C903.66206617 1124.51632348 902.75972257 1125.66476109 901.85742188 1126.81323242 C894.9609375 1135.59057617 894.9609375 1135.59057617 888.06445312 1144.36791992 C891.86906007 1150.41053095 896.08352504 1155.93482719 900.64648438 1161.42260742 C904.48178849 1166.0943672 908.13217694 1170.90617207 911.79833984 1175.71069336 C913.87990002 1178.43526538 915.97267669 1181.15118896 918.06445312 1183.86791992 C918.89784153 1184.95121089 919.73117484 1186.03454425 920.56445312 1187.11791992 C920.97695312 1187.65416992 921.38945313 1188.19041992 921.81445312 1188.74291992 C995.56445311 1284.61791991 995.56445311 1284.61791991 996.81347656 1286.24169922 C997.65000223 1287.32914993 998.48659115 1288.41655199 999.32324219 1289.50390625 C1001.35824601 1292.1488578 1003.39201845 1294.79473104 1005.42382812 1297.44213867 C1010.21820408 1303.68579494 1015.03856401 1309.90830059 1019.87695312 1316.11791992 C1026.16140253 1324.18547072 1032.3809125 1332.30109271 1038.58447266 1340.4309082 C1042.39698852 1345.42076317 1046.23297493 1350.3926236 1050.06445312 1355.36791992 C1051.73140605 1357.53436643 1053.39792726 1359.70114489 1055.06445312 1361.86791992 C1055.8977786 1362.9512593 1056.73111192 1364.03459264 1057.56445312 1365.11791992 C1102.56445312 1423.61791992 1102.56445312 1423.61791992 1103.81347656 1425.24169922 C1104.65000223 1426.32914993 1105.48659115 1427.41655199 1106.32324219 1428.50390625 C1108.35824601 1431.1488578 1110.39201845 1433.79473104 1112.42382812 1436.44213867 C1117.21820408 1442.68579494 1122.03856401 1448.90830059 1126.87695312 1455.11791992 C1133.16140253 1463.18547072 1139.3809125 1471.30109271 1145.58447266 1479.4309082 C1149.39698852 1484.42076317 1153.23297493 1489.3926236 1157.06445312 1494.36791992 C1158.73140605 1496.53436643 1160.39792726 1498.70114489 1162.06445312 1500.86791992 C1162.8977786 1501.9512593 1163.73111192 1503.03459264 1164.56445312 1504.11791992 C1219.56445312 1575.61791991 1219.56445312 1575.61791991 1220.81347656 1577.24169922 C1221.65000223 1578.32914993 1222.48659115 1579.41655199 1223.32324219 1580.50390625 C1225.35824601 1583.1488578 1227.39201845 1585.79473104 1229.42382812 1588.44213867 C1234.21820408 1594.68579494 1239.03856401 1600.90830059 1243.87695312 1607.11791992 C1250.16140253 1615.18547072 1256.3809125 1623.30109271 1262.58447266 1631.4309082 C1266.39698852 1636.42076317 1270.23297493 1641.3926236 1274.06445312 1646.36791992 C1275.73140605 1648.53436643 1277.39792726 1650.70114489 1279.06445312 1652.86791992 C1279.8977786 1653.9512593 1280.73111192 1655.03459264 1281.56445312 1656.11791992 C1326.56445312 1714.61791991 1326.56445312 1714.61791991 1327.81347656 1716.24169922 C1328.65000223 1717.32914993 1329.48659115 1718.41655199 1330.32324219 1719.50390625 C1332.35824601 1722.1488578 1334.39201845 1724.79473104 1336.42382812 1727.44213867 C1341.21820408 1733.68579494 1346.03856401 1739.90830059 1350.87695312 1746.11791992 C1357.16140253 1754.18547072 1363.3809125 1762.30109271 1369.58447266 1770.4309082 C1373.39698852 1775.42076317 1377.23297493 1780.3926236 1381.06445312 1785.36791992 C1382.73140605 1787.53436643 1384.39792726 1789.70114489 1386.06445312 1791.86791992 C1386.8977786 1792.9512593 1387.73111192 1794.03459264 1388.56445312 1795.11791992 C1433.56445312 1853.61791991 1433.56445312 1853.61791991 1434.81347656 1855.24169922 C1435.65000223 1856.32914993 1436.48659115 1857.41655199 1437.32324219 1858.50390625 C1439.35824601 1861.1488578 1441.39201845 1863.79473104 1443.42382812 1866.44213867 C1448.21820408 1872.68579494 1453.03856401 1878.90830059 1457.87695312 1885.11791992 C1464.16140253 1893.18547072 1470.3809125 1901.30109271 1476.58447266 1909.4309082 C1480.39698852 1914.42076317 1484.23297493 1919.3926236 1488.06445312 1924.36791992 C1489.73140605 1926.53436643 1491.39792726 1928.70114489 1493.06445312 1930.86791992 C1493.8977786 1931.9512593 1494.73111192 1933.03459264 1495.56445312 1934.11791992 C1540.56445314 1992.61791993 1540.56445314 1992.61791993 1541.81347656 1994.24169922 C1542.65000223 1995.32914993 1543.48659115 1996.41655199 1544.32324219 1997.50390625 C1546.35824601 2000.1488578 1548.39201845 2002.79473104 1550.42382812 2005.44213867 C1555.21820408 2011.68579494 1560.03856401 2017.90830059 1564.87695312 2024.11791992 C1571.16140253 2032.18547072 1577.3809125 2040.30109271 1583.58447266 2048.4309082 C1587.39698852 2053.42076317 1591.23297493 2058.3926236 1595.06445312 2063.36791992 C1596.73140605 2065.53436643 1598.39792726 2067.70114489 1600.06445312 2069.86791992 C1600.8977786 2070.9512593 1601.73111192 2072.03459264 1602.56445312 2073.11791992 C1647.56445313 2131.61791993 1647.56445313 2131.61791993 1648.81347656 2133.24169922 C1649.65000223 2134.32914993 1650.48659115 2135.41655199 1651.32324219 2136.50390625 C1653.35824601 2139.1488578 1655.39201845 2141.79473104 1657.42382812 2144.44213867 C1662.21820408 2150.68579494 1667.03856401 2156.90830059 1671.87695312 2163.11791992 C1678.16140253 2171.18547072 1684.3809125 2179.30109271 1690.58447266 2187.4309082 C1694.39698852 2192.42076317 1698.23297493 2197.3926236 1702.06445312 2202.36791992 C1703.73140605 2204.53436643 1705.39792726 2206.70114489 1707.06445312 2208.86791992 C1707.8977786 2209.9512593 1708.73111192 2211.03459264 1709.56445312 2212.11791992 C1754.56445314 2270.61791993 1754.56445314 2270.61791993 1755.81347656 2272.24169922 C1756.65000223 2273.32914993 1757.48659115 2274.41655199 1758.32324219 2275.50390625 C1760.35824601 2278.1488578 1762.39201845 2280.79473104 1764.42382812 2283.44213867 C1769.21820408 2289.68579494 1774.03856401 2295.90830059 1778.87695312 2302.11791992 C1784.63662719 2309.51179966 1790.3454133 2316.94302196 1796.02929688 2324.39526367 C1798.38156895 2327.47839641 1800.74773562 2330.55038339 1803.12060547 2333.61767578 C1817.06445312 2351.65580129 1817.06445312 2351.65580129 1817.06445312 2353.36791992 C1800.69455732 2353.49741957 1784.33200268 2353.12660922 1767.96653724 2352.79506421 C1763.8986788 2352.71297403 1759.83078353 2352.63274639 1755.76289368 2352.55223083 C1748.91685486 2352.41644221 1742.07084586 2352.27922361 1735.22485352 2352.14111328 C1727.41814656 2351.98363711 1719.61139893 2351.8283266 1711.80462426 2351.67424637 C1704.18755795 2351.52386257 1696.57052316 2351.3719331 1688.95350075 2351.21934319 C1685.76596785 2351.1555084 1682.57842606 2351.09215174 1679.39087486 2351.02923775 C1678.63277002 2351.01421028 1677.87466518 2350.99918282 1677.09358746 2350.98369998 C1675.57912201 2350.95370632 1674.06465297 2350.92389309 1672.55018038 2350.89426261 C1668.85350999 2350.8210229 1665.15715071 2350.74172399 1661.46090221 2350.64949894 C1654.46226337 2350.47810827 1647.47157102 2350.35225603 1640.47047895 2350.37163001 C1637.0790829 2350.3763403 1633.68822212 2350.35109174 1630.29696429 2350.32226741 C1628.6815544 2350.31616391 1627.06602448 2350.32376812 1625.45075929 2350.34623444 C1611.37573819 2350.53447902 1611.37573819 2350.53447902 1605.97709656 2345.68214417 C1602.78699339 2342.13824192 1600.57980634 2338.16367684 1598.43505859 2333.92602539 C1596.1383672 2329.63946814 1593.13977468 2325.90676701 1590.18945312 2322.05541992 C1589.0222817 2320.46785716 1587.85825284 2318.87797954 1586.69726562 2317.28588867 C1582.88302905 2312.09781867 1578.97891162 2306.98057659 1575.06445312 2301.86791992 C1569.41079351 2294.48159983 1563.84974923 2287.0359726 1558.35351562 2279.53198242 C1553.33136372 2272.69185697 1548.1883365 2265.94800998 1543.02978516 2259.21044922 C1538.60021968 2253.41411063 1534.24629755 2247.56838066 1529.93945312 2241.68041992 C1525.41329943 2235.49535921 1520.79394659 2229.39887945 1516.06445312 2223.36791992 C1510.72999073 2216.56551559 1505.55851499 2209.66132206 1500.45507812 2202.68432617 C1496.06214146 2196.69040814 1491.58204507 2190.76832648 1487.06445312 2184.86791992 C1481.41079351 2177.48159983 1475.84974923 2170.0359726 1470.35351562 2162.53198242 C1465.9916828 2156.59120559 1461.54390764 2150.72038732 1457.06445312 2144.86791992 C1451.41091918 2137.48150201 1445.84975119 2130.03597526 1440.35351562 2122.53198242 C1435.9916828 2116.59120559 1431.54390764 2110.72038732 1427.06445312 2104.86791992 C1421.41091918 2097.48150201 1415.84975119 2090.03597526 1410.35351562 2082.53198242 C1405.9916828 2076.59120559 1401.54390764 2070.72038732 1397.06445312 2064.86791992 C1391.41091918 2057.48150201 1385.84975119 2050.03597526 1380.35351562 2042.53198242 C1375.9916828 2036.59120559 1371.54390764 2030.72038732 1367.06445312 2024.86791992 C1361.41091918 2017.48150201 1355.84975119 2010.03597526 1350.35351562 2002.53198242 C1345.9916828 1996.59120559 1341.54390764 1990.72038732 1337.06445312 1984.86791992 C1331.41091918 1977.48150201 1325.84975119 1970.03597526 1320.35351562 1962.53198242 C1315.9916828 1956.59120559 1311.54390764 1950.72038732 1307.06445312 1944.86791992 C1301.41091918 1937.48150201 1295.84975119 1930.03597526 1290.35351562 1922.53198242 C1285.9916828 1916.59120559 1281.54390764 1910.72038732 1277.06445312 1904.86791992 C1271.41091918 1897.48150201 1265.84975119 1890.03597526 1260.35351562 1882.53198242 C1255.9916828 1876.59120559 1251.54390764 1870.72038732 1247.06445312 1864.86791992 C1241.41091918 1857.48150201 1235.84975119 1850.03597526 1230.35351562 1842.53198242 C1225.9916828 1836.59120559 1221.54390764 1830.72038732 1217.06445312 1824.86791992 C1211.41091918 1817.48150201 1205.84975119 1810.03597526 1200.35351562 1802.53198242 C1195.9916828 1796.59120559 1191.54390764 1790.72038732 1187.06445312 1784.86791992 C1181.41091918 1777.48150201 1175.84975119 1770.03597526 1170.35351562 1762.53198242 C1165.9916828 1756.59120559 1161.54390764 1750.72038732 1157.06445312 1744.86791992 C1151.41091918 1737.48150201 1145.84975119 1730.03597526 1140.35351562 1722.53198242 C1135.9916828 1716.59120559 1131.54390764 1710.72038732 1127.06445312 1704.86791992 C1121.41091918 1697.48150201 1115.84975119 1690.03597526 1110.35351562 1682.53198242 C1105.9916828 1676.59120559 1101.54390764 1670.72038732 1097.06445312 1664.86791992 C1091.41091918 1657.48150201 1085.84975119 1650.03597526 1080.35351562 1642.53198242 C1075.9916828 1636.59120559 1071.54390764 1630.72038732 1067.06445312 1624.86791992 C1061.41091918 1617.48150201 1055.84975119 1610.03597526 1050.35351562 1602.53198242 C1045.9916828 1596.59120559 1041.54390764 1590.72038732 1037.06445312 1584.86791992 C1031.41091918 1577.48150201 1025.84975119 1570.03597526 1020.35351562 1562.53198242 C1015.9916828 1556.59120559 1011.54390764 1550.72038732 1007.06445312 1544.86791992 C1001.41091918 1537.48150201 995.84975119 1530.03597526 990.35351562 1522.53198242 C985.9916828 1516.59120559 981.54390764 1510.72038732 977.06445312 1504.86791992 C971.41091918 1497.48150201 965.84975119 1490.03597526 960.35351562 1482.53198242 C955.9916828 1476.59120559 951.54390764 1470.72038732 947.06445312 1464.86791992 C941.41091918 1457.48150201 935.84975119 1450.03597526 930.35351562 1442.53198242 C925.9916828 1436.59120559 921.54390764 1430.72038732 917.06445312 1424.86791992 C911.41091918 1417.48150201 905.84975119 1410.03597526 900.35351562 1402.53198242 C895.9916828 1396.59120559 891.54390764 1390.72038732 887.06445312 1384.86791992 C881.41091918 1377.48150201 875.84975119 1370.03597526 870.35351562 1362.53198242 C865.9916828 1356.59120559 861.54390764 1350.72038732 857.06445312 1344.86791992 C851.41091918 1337.48150201 845.84975119 1330.03597526 840.35351562 1322.53198242 C835.33413591 1315.69563267 830.19366992 1308.95573748 825.03857422 1302.22143555 C819.93439487 1295.54131143 814.93162302 1288.79210229 809.96240234 1282.01123047 C805.09776046 1275.3833504 800.11759515 1268.85317363 795.06445312 1262.36791992 C790.98982519 1266.28438301 787.41627903 1270.46596261 783.87695312 1274.86791992 C783.30525391 1275.5749707 782.73355469 1276.28202148 782.14453125 1277.01049805 C777.8946286 1282.28607552 773.76247233 1287.64150576 769.65429688 1293.02807617 C766.1804191 1297.54371035 762.55918209 1301.93966719 758.95556641 1306.35180664 C753.56909023 1312.95463497 748.30748435 1319.65100584 743.06445312 1326.36791992 C736.75827513 1334.44684488 730.38321922 1342.46003895 723.90527344 1350.40209961 C718.53932127 1356.99091565 713.29283658 1363.66977128 708.06445312 1370.36791992 C701.75827513 1378.44684488 695.38321922 1386.46003895 688.90527344 1394.40209961 C683.53932127 1400.99091565 678.29283658 1407.66977128 673.06445312 1414.36791992 C667.34276909 1421.69804222 661.57866107 1428.9838658 655.68945312 1436.18041992 C651.22285644 1441.64091532 646.88377495 1447.18005701 642.62695312 1452.80541992 C637.62916036 1459.40607839 632.44987891 1465.82787256 627.16113281 1472.19702148 C621.66577508 1478.82152028 616.35129381 1485.5767096 611.06445312 1492.36791992 C604.76114329 1500.44902702 598.3831604 1508.46011106 591.90527344 1516.40209961 C586.53932127 1522.99091565 581.29283658 1529.66977128 576.06445312 1536.36791992 C569.75827513 1544.44684488 563.38321922 1552.46003895 556.90527344 1560.40209961 C551.53932127 1566.99091565 546.29283658 1573.66977128 541.06445312 1580.36791992 C534.75827513 1588.44684488 528.38321922 1596.46003895 521.90527344 1604.40209961 C516.53932127 1610.99091565 511.29283658 1617.66977128 506.06445312 1624.36791992 C499.75827513 1632.44684488 493.38321922 1640.46003895 486.90527344 1648.40209961 C481.53932127 1654.99091565 476.29283658 1661.66977128 471.06445312 1668.36791992 C465.34276909 1675.69804222 459.57866107 1682.9838658 453.68945312 1690.18041992 C449.22285644 1695.64091532 444.88377495 1701.18005701 440.62695312 1706.80541992 C435.62916036 1713.40607839 430.44987891 1719.82787256 425.16113281 1726.19702148 C419.66577508 1732.82152028 414.35129381 1739.5767096 409.06445312 1746.36791992 C402.76114329 1754.44902702 396.3831604 1762.46011106 389.90527344 1770.40209961 C384.53932127 1776.99091565 379.29283658 1783.66977128 374.06445312 1790.36791992 C367.75827513 1798.44684488 361.38321922 1806.46003895 354.90527344 1814.40209961 C349.53932127 1820.99091565 344.29283658 1827.66977128 339.06445312 1834.36791992 C332.75827513 1842.44684488 326.38321922 1850.46003895 319.90527344 1858.40209961 C314.53932127 1864.99091565 309.29283658 1871.66977128 304.06445312 1878.36791992 C298.34276909 1885.69804222 292.57866107 1892.9838658 286.68945312 1900.18041992 C282.22285644 1905.64091532 277.88377495 1911.18005701 273.62695312 1916.80541992 C268.62916036 1923.40607839 263.44987891 1929.82787256 258.16113281 1936.19702148 C252.66577508 1942.82152028 247.35129381 1949.5767096 242.06445312 1956.36791992 C235.76114329 1964.44902702 229.3831604 1972.46011106 222.90527344 1980.40209961 C217.53932127 1986.99091565 212.29283658 1993.66977128 207.06445312 2000.36791992 C200.75827513 2008.44684488 194.38321922 2016.46003895 187.90527344 2024.40209961 C182.53932127 2030.99091565 177.29283658 2037.66977128 172.06445312 2044.36791992 C165.75827513 2052.44684488 159.38321922 2060.46003895 152.90527344 2068.40209961 C147.53932127 2074.99091565 142.29283658 2081.66977128 137.06445312 2088.36791992 C130.75827513 2096.44684488 124.38321922 2104.46003895 117.90527344 2112.40209961 C112.53932127 2118.99091565 107.29283658 2125.66977128 102.06445312 2132.36791992 C96.34276909 2139.69804222 90.57866107 2146.9838658 84.68945312 2154.18041992 C80.22285644 2159.64091532 75.88377495 2165.18005701 71.62695312 2170.80541992 C66.62916036 2177.40607839 61.44987891 2183.82787256 56.16113281 2190.19702148 C50.66577508 2196.82152028 45.35129381 2203.5767096 40.06445312 2210.36791992 C33.76114329 2218.44902702 27.3831604 2226.46011106 20.90527344 2234.40209961 C16.00753089 2240.41600426 11.20749235 2246.50258273 6.43359375 2252.61499023 C4.02240617 2255.70206706 1.60645882 2258.78539757 -0.81054688 2261.86791992 C-1.47111084 2262.71314209 -1.47111084 2262.71314209 -2.14501953 2263.57543945 C-2.56831543 2264.11539551 -2.99161133 2264.65535156 -3.42773438 2265.21166992 C-3.79237793 2265.67766602 -4.15702148 2266.14366211 -4.53271484 2266.6237793 C-4.99564941 2267.1993457 -5.45858398 2267.77491211 -5.93554688 2268.36791992 C-6.54744873 2269.42237305 -7.15935059 2270.47682617 -7.78979492 2271.56323242 C-9.62955775 2273.71291587 -10.58999709 2274.30791555 -13.40789795 2274.79724121 C-16.88562633 2274.82709903 -20.30535495 2274.63729035 -23.77539062 2274.39916992 C-25.19758103 2274.32573574 -26.61995443 2274.25578452 -28.04246521 2274.18884277 C-31.37472847 2274.02903099 -34.70573376 2273.8530997 -38.0368042 2273.67016602 C-44.72198419 2273.31481759 -51.41031058 2273.06048313 -58.10009766 2272.80932617 C-60.00188058 2272.73772278 -60.00188058 2272.73772278 -61.94208336 2272.66467285 C-63.91678244 2272.59036939 -65.89148162 2272.51606821 -67.86618888 2272.44198227 C-75.40740853 2272.15821148 -82.94784165 2271.85519712 -90.48828125 2271.55151367 C-92.60122595 2271.46653053 -94.71417176 2271.38157499 -96.82711756 2271.29661942 C-98.24492109 2271.23960947 -99.66272382 2271.18257971 -101.08052576 2271.12553024 C-106.81679906 2270.89486157 -112.5531721 2270.66675247 -118.28957039 2270.43921614 C-123.90747782 2270.21630479 -129.52532718 2269.9919697 -135.14313263 2269.76650286 C-138.46306901 2269.63326489 -141.78302652 2269.50064501 -145.10302925 2269.36906433 C-158.39080383 2268.84156986 -171.66927286 2268.30382132 -184.93554688 2267.36791992 C-183.55458326 2263.77384026 -182.10325137 2260.99738134 -179.73242188 2257.95385742 C-178.76731689 2256.70342651 -178.76731689 2256.70342651 -177.78271484 2255.42773438 C-176.7446167 2254.09875122 -176.7446167 2254.09875122 -175.68554688 2252.74291992 C-174.22328494 2250.84941073 -172.76237306 2248.95485828 -171.30273438 2247.05932617 C-170.56764648 2246.10558105 -169.83255859 2245.15183594 -169.07519531 2244.16918945 C-165.9281023 2240.0489538 -162.8668443 2235.86819396 -159.81054688 2231.68041992 C-154.72475302 2224.72887449 -149.49555309 2217.9075717 -144.18066406 2211.13012695 C-140.04531544 2205.83941492 -136.02626294 2200.47422279 -132.06054688 2195.05541992 C-123.83259943 2183.81448638 -115.36227461 2172.76264084 -106.89453125 2161.7019043 C-99.1040807 2151.52128675 -91.37957388 2141.30178445 -83.79785156 2130.96459961 C-79.41155601 2124.99150452 -74.92488299 2119.1083116 -70.38769531 2113.2487793 C-62.05758459 2102.45940926 -53.80805341 2091.61069085 -45.74804688 2080.61791992 C-39.82879175 2072.5448476 -33.7830077 2064.57769286 -27.68212891 2056.64135742 C-18.60860288 2044.83080746 -9.60700171 2032.97539056 -0.79858398 2020.96557617 C3.58797825 2014.99217144 8.07486732 2009.10863406 12.61230469 2003.2487793 C20.94241541 1992.45940926 29.19194659 1981.61069085 37.25195312 1970.61791992 C43.17120825 1962.5448476 49.2169923 1954.57769286 55.31787109 1946.64135742 C64.39139712 1934.83080746 73.39299829 1922.97539056 82.20141602 1910.96557617 C86.58797825 1904.99217144 91.07486732 1899.10863406 95.61230469 1893.2487793 C103.94241541 1882.45940926 112.19194659 1871.61069085 120.25195312 1860.61791992 C126.17120825 1852.5448476 132.2169923 1844.57769286 138.31787109 1836.64135742 C147.31999205 1824.92375184 156.25307644 1813.16336162 164.99047852 1801.24682617 C170.33548968 1793.96928859 175.81496417 1786.79982044 181.31787109 1779.64135742 C190.39139712 1767.83080746 199.39299829 1755.97539056 208.20141602 1743.96557617 C212.58797825 1737.99217144 217.07486732 1732.10863406 221.61230469 1726.2487793 C229.94241541 1715.45940926 238.19194659 1704.61069085 246.25195312 1693.61791992 C252.17120825 1685.5448476 258.2169923 1677.57769286 264.31787109 1669.64135742 C273.39139712 1657.83080746 282.39299829 1645.97539056 291.20141602 1633.96557617 C295.58797825 1627.99217144 300.07486732 1622.10863406 304.61230469 1616.2487793 C312.94241541 1605.45940926 321.19194659 1594.61069085 329.25195312 1583.61791992 C335.17120825 1575.5448476 341.2169923 1567.57769286 347.31787109 1559.64135742 C356.39139712 1547.83080746 365.39299829 1535.97539056 374.20141602 1523.96557617 C378.58797825 1517.99217144 383.07486732 1512.10863406 387.61230469 1506.2487793 C395.94241541 1495.45940926 404.19194659 1484.61069085 412.25195312 1473.61791992 C418.17120825 1465.5448476 424.2169923 1457.57769286 430.31787109 1449.64135742 C439.39139712 1437.83080746 448.39299829 1425.97539056 457.20141602 1413.96557617 C461.58797825 1407.99217144 466.07486732 1402.10863406 470.61230469 1396.2487793 C478.94241541 1385.45940926 487.19194659 1374.61069085 495.25195312 1363.61791992 C501.17120825 1355.5448476 507.2169923 1347.57769286 513.31787109 1339.64135742 C522.39139712 1327.83080746 531.39299829 1315.97539056 540.20141602 1303.96557617 C544.58797825 1297.99217144 549.07486732 1292.10863406 553.61230469 1286.2487793 C561.94241541 1275.45940926 570.19194659 1264.61069085 578.25195312 1253.61791992 C584.17120825 1245.5448476 590.2169923 1237.57769286 596.31787109 1229.64135742 C605.39139712 1217.83080746 614.39299829 1205.97539056 623.20141602 1193.96557617 C627.58797825 1187.99217144 632.07486732 1182.10863406 636.61230469 1176.2487793 C645.5321508 1164.69556907 654.34476605 1153.06590864 662.95898438 1141.28295898 C665.84522964 1137.34429826 668.76462032 1133.43857152 671.75585938 1129.57885742 C672.65171753 1128.42208496 672.65171753 1128.42208496 673.56567383 1127.24194336 C674.69827081 1125.78536323 675.83582693 1124.33262015 676.97924805 1122.88452148 C681.05689111 1118.07090522 681.05689111 1118.07090522 683.06445312 1112.36791992 C681.44822666 1109.34856821 679.27267841 1106.84645873 677.06445312 1104.24291992 C675.74697212 1102.62375726 674.43193732 1101.00260162 673.11914062 1099.37963867 C672.44077148 1098.54867676 671.76240234 1097.71771484 671.06347656 1096.86157227 C667.9808614 1093.01620938 665.08529585 1089.04221956 662.18945312 1085.05541992 C657.22624849 1078.26462442 652.17775742 1071.54638372 647.06445312 1064.86791992 C641.41079351 1057.48159983 635.84974923 1050.0359726 630.35351562 1042.53198242 C625.9916828 1036.59120559 621.54390764 1030.72038732 617.06445312 1024.86791992 C611.41091918 1017.48150201 605.84975119 1010.03597526 600.35351562 1002.53198242 C595.9916828 996.59120559 591.54390764 990.72038732 587.06445312 984.86791992 C581.41091918 977.48150201 575.84975119 970.03597526 570.35351562 962.53198242 C565.9916828 956.59120559 561.54390764 950.72038732 557.06445312 944.86791992 C551.41091918 937.48150201 545.84975119 930.03597526 540.35351562 922.53198242 C535.33136372 915.69185697 530.1883365 908.94800998 525.02978516 902.21044922 C520.60021968 896.41411063 516.24629755 890.56838066 511.93945312 884.68041992 C507.41329943 878.49535921 502.79394659 872.39887945 498.06445312 866.36791992 C492.72999073 859.56551559 487.55851499 852.66132206 482.45507812 845.68432617 C478.06214146 839.69040814 473.58204507 833.76832648 469.06445312 827.86791992 C463.41079351 820.48159983 457.84974923 813.0359726 452.35351562 805.53198242 C447.9916828 799.59120559 443.54390764 793.72038732 439.06445312 787.86791992 C433.41091918 780.48150201 427.84975119 773.03597526 422.35351562 765.53198242 C417.9916828 759.59120559 413.54390764 753.72038732 409.06445312 747.86791992 C403.41091918 740.48150201 397.84975119 733.03597526 392.35351562 725.53198242 C387.9916828 719.59120559 383.54390764 713.72038732 379.06445312 707.86791992 C373.41091918 700.48150201 367.84975119 693.03597526 362.35351562 685.53198242 C357.9916828 679.59120559 353.54390764 673.72038732 349.06445312 667.86791992 C343.41091918 660.48150201 337.84975119 653.03597526 332.35351562 645.53198242 C327.9916828 639.59120559 323.54390764 633.72038732 319.06445312 627.86791992 C313.41091918 620.48150201 307.84975119 613.03597526 302.35351562 605.53198242 C297.9916828 599.59120559 293.54390764 593.72038732 289.06445312 587.86791992 C283.41091918 580.48150201 277.84975119 573.03597526 272.35351562 565.53198242 C267.9916828 559.59120559 263.54390764 553.72038732 259.06445312 547.86791992 C253.41091918 540.48150201 247.84975119 533.03597526 242.35351562 525.53198242 C237.9916828 519.59120559 233.54390764 513.72038732 229.06445312 507.86791992 C223.41091918 500.48150201 217.84975119 493.03597526 212.35351562 485.53198242 C207.9916828 479.59120559 203.54390764 473.72038732 199.06445312 467.86791992 C193.41091918 460.48150201 187.84975119 453.03597526 182.35351562 445.53198242 C177.9916828 439.59120559 173.54390764 433.72038732 169.06445312 427.86791992 C163.41091918 420.48150201 157.84975119 413.03597526 152.35351562 405.53198242 C147.9916828 399.59120559 143.54390764 393.72038732 139.06445312 387.86791992 C133.41091918 380.48150201 127.84975119 373.03597526 122.35351562 365.53198242 C117.9916828 359.59120559 113.54390764 353.72038732 109.06445312 347.86791992 C103.41091918 340.48150201 97.84975119 333.03597526 92.35351562 325.53198242 C87.9916828 319.59120559 83.54390764 313.72038732 79.06445312 307.86791992 C73.41091918 300.48150201 67.84975119 293.03597526 62.35351562 285.53198242 C57.9916828 279.59120559 53.54390764 273.72038732 49.06445312 267.86791992 C43.41091918 260.48150201 37.84975119 253.03597526 32.35351562 245.53198242 C27.9916828 239.59120559 23.54390764 233.72038732 19.06445312 227.86791992 C13.41091918 220.48150201 7.84975119 213.03597526 2.35351562 205.53198242 C-2.0083172 199.59120559 -6.45609236 193.72038732 -10.93554688 187.86791992 C-16.58908082 180.48150201 -22.15024881 173.03597526 -27.64648438 165.53198242 C-32.0083172 159.59120559 -36.45609236 153.72038732 -40.93554688 147.86791992 C-46.58908082 140.48150201 -52.15024881 133.03597526 -57.64648438 125.53198242 C-62.0083172 119.59120559 -66.45609236 113.72038732 -70.93554688 107.86791992 C-76.58908082 100.48150201 -82.15024881 93.03597526 -87.64648438 85.53198242 C-92.0083172 79.59120559 -96.45609236 73.72038732 -100.93554688 67.86791992 C-106.57957794 60.49391765 -112.1392885 53.06639986 -117.61572266 45.56713867 C-120.81033319 41.20627084 -124.05726678 36.89362125 -127.36523438 32.61791992 C-128.10515625 31.65950195 -128.84507812 30.70108398 -129.60742188 29.71362305 C-131.05170048 27.84809652 -132.50202334 25.98723035 -133.95898438 24.1315918 C-134.93351562 22.87185547 -134.93351562 22.87185547 -135.92773438 21.58666992 C-136.50894043 20.84352539 -137.09014648 20.10038086 -137.68896484 19.3347168 C-138.93554688 17.36791992 -138.93554688 17.36791992 -138.93554688 14.36791992 C-122.67991402 12.69000836 -106.42426238 11.0122789 -90.16858864 9.33476353 C-82.62003331 8.55578095 -75.07148404 7.77673981 -67.52294922 6.99755859 C-60.94017313 6.31806589 -54.35738547 5.63868532 -47.77458417 4.95943683 C-44.29222565 4.60010465 -40.80987275 4.24071806 -37.32753372 3.88119698 C-33.43077603 3.47889292 -29.53399253 3.0768393 -25.63720703 2.67480469 C-24.49496674 2.55684036 -23.35272644 2.43887604 -22.1758728 2.31733704 C-16.43939499 1.72571132 -10.70233291 1.1417778 -4.96317863 0.57665443 C-3.3064124 0.40609867 -1.65259291 0.20712388 0 0 Z " fill="#DDB955" transform="translate(184.935546875,144.632080078125)"/>
<path d="M0 0 C4.20466224 1.87558465 6.3603206 4.69405599 9.0625 8.3125 C10.03694693 9.58625666 11.01356645 10.85835375 11.9921875 12.12890625 C12.48944336 12.7748877 12.98669922 13.42086914 13.49902344 14.08642578 C15.81697662 17.04155217 18.24457528 19.89799759 20.6875 22.75 C24.47184089 27.18121986 28.1715733 31.66500279 31.79296875 36.23046875 C34.56873313 39.71368458 37.37691565 43.16985828 40.1875 46.625 C40.7429248 47.30796143 41.29834961 47.99092285 41.87060547 48.69458008 C43.01177787 50.09757779 44.1530549 51.50049041 45.29443359 52.90332031 C48.03116479 56.26762714 50.7654955 59.63388328 53.5 63 C54.58332107 64.3333433 55.66665442 65.66667662 56.75 67 C58.91666667 69.66666667 61.08333333 72.33333333 63.25 75 C63.78633057 75.66008057 64.32266113 76.32016113 64.87524414 77.00024414 C65.95783721 78.33270392 67.04035683 79.6652234 68.12280273 80.99780273 C70.84186078 84.34499632 73.56221415 87.69112133 76.28515625 91.03515625 C79.00311432 94.3736453 81.71641717 97.71587119 84.42675781 101.06054688 C85.45330362 102.32604655 86.48123556 103.59042346 87.51074219 104.85351562 C95.39809632 114.53463191 102.86714249 124.48227063 110.2265625 134.56933594 C118.70916273 146.19554297 127.29153903 157.73481327 136.03857422 169.16357422 C141.00379241 175.66208053 145.87114613 182.22632309 150.70214844 188.82495117 C155.14481102 194.87779513 159.68378637 200.85247959 164.25 206.8125 C168.99569878 213.00877085 173.65458099 219.24064107 178.14257812 225.62548828 C182.54319952 231.84399405 187.20347725 237.86366787 191.8359375 243.91015625 C196.2872403 249.72852583 200.67259152 255.58899963 205 261.5 C209.94181129 268.24968764 214.97377678 274.92292779 220.0625 281.5625 C225.52195656 288.6889662 230.84714321 295.89191237 236.06884766 303.19384766 C240.90970043 309.93598658 245.93963711 316.52600271 250.98828125 323.11328125 C255.3894518 328.8634696 259.72220925 334.65753654 264 340.5 C268.92552691 347.22506293 273.93366451 353.88039279 279 360.5 C287.0413063 371.01139798 294.89060474 381.65631162 302.70898438 392.33398438 C310.05188811 402.35616884 317.48735999 412.29725718 325.03857422 422.16357422 C330.00379241 428.66208053 334.87114613 435.22632309 339.70214844 441.82495117 C344.14481102 447.87779513 348.68378637 453.85247959 353.25 459.8125 C357.99569878 466.00877085 362.65458099 472.24064107 367.14257812 478.62548828 C371.54319952 484.84399405 376.20347725 490.86366787 380.8359375 496.91015625 C385.28724225 502.72852838 389.6724824 508.58907773 394 514.5 C398.92549456 521.2250863 403.93366503 527.88039347 409 534.5 C417.0413063 545.01139798 424.89060474 555.65631162 432.70898438 566.33398438 C440.05188811 576.35616884 447.48735999 586.29725718 455.03857422 596.16357422 C460.00379241 602.66208053 464.87114613 609.22632309 469.70214844 615.82495117 C474.14481102 621.87779513 478.68378637 627.85247959 483.25 633.8125 C487.99569878 640.00877085 492.65458099 646.24064107 497.14257812 652.62548828 C501.54319952 658.84399405 506.20347725 664.86366787 510.8359375 670.91015625 C515.2872403 676.72852583 519.67259152 682.58899963 524 688.5 C528.94181129 695.24968764 533.97377678 701.92292779 539.0625 708.5625 C544.52195656 715.6889662 549.84714321 722.89191237 555.06884766 730.19384766 C559.90970043 736.93598658 564.93963711 743.52600271 569.98828125 750.11328125 C574.3894518 755.8634696 578.72220925 761.65753654 583 767.5 C587.92552925 774.22506612 592.93379583 780.88028944 598 787.5 C603.26032329 794.37878636 608.47978154 801.28459136 613.625 808.25 C614.18058594 808.99958984 614.73617188 809.74917969 615.30859375 810.52148438 C618.0264956 814.21478895 620.65770165 817.94705906 623.19287109 821.76855469 C623.72190033 822.5650946 624.25092957 823.36163452 624.79598999 824.18231201 C625.19331329 824.78214905 625.5906366 825.38198608 626 826 C601.9912927 826.44463883 577.98320571 826.77927242 553.97120476 826.98443127 C542.82070844 827.08224183 531.67277584 827.21547593 520.52392578 827.43334961 C510.80172219 827.62325216 501.08137534 827.74542385 491.35736859 827.7876814 C486.21146013 827.81237302 481.07086094 827.86999233 475.92666245 828.00887108 C442.12099335 828.88643073 442.12099335 828.88643073 434.52545166 821.96670532 C431.30378471 818.12769545 429.12378412 814.08668278 427.16894913 809.49199867 C425.15493118 805.1984585 422.2353186 801.57092997 419.375 797.8125 C418.29570835 796.32173317 417.21970339 794.8285758 416.1484375 793.33203125 C413.14705792 789.18458642 410.08379306 785.08638062 407 781 C402.24567691 774.69997489 397.6023014 768.32702293 392.99389648 761.91967773 C387.31443685 754.03008877 381.54325703 746.20931251 375.76611328 738.39111328 C372.84043897 734.43008838 369.92049694 730.46484283 367 726.5 C365.8333611 724.91664621 364.66669442 723.33331288 363.5 721.75 C356.5 712.25 349.5 702.75 342.5 693.25 C341.92241943 692.46616943 341.34483887 691.68233887 340.74975586 690.87475586 C339.58379194 689.29231815 338.41793896 687.70979869 337.25219727 686.12719727 C334.32568557 682.15448113 331.39722466 678.18323006 328.46484375 674.21484375 C322.22528928 665.76659743 316.0293578 657.28993416 309.89208984 648.76708984 C304.24281917 640.93122514 298.50687108 633.16007146 292.76611328 625.39111328 C289.84043897 621.43008838 286.92049694 617.46484283 284 613.5 C282.8333611 611.91664621 281.66669442 610.33331288 280.5 608.75 C273.5 599.25 266.5 589.75 259.5 580.25 C258.92241943 579.46616943 258.34483887 578.68233887 257.74975586 577.87475586 C256.58379194 576.29231815 255.41793896 574.70979869 254.25219727 573.12719727 C251.32568557 569.15448113 248.39722466 565.18323006 245.46484375 561.21484375 C239.22528928 552.76659743 233.0293578 544.28993416 226.89208984 535.76708984 C221.24281917 527.93122514 215.50687108 520.16007146 209.76611328 512.39111328 C206.84043897 508.43008838 203.92049694 504.46484283 201 500.5 C199.8333611 498.91664621 198.66669442 497.33331288 197.5 495.75 C190.5 486.25 183.5 476.75 176.5 467.25 C175.92241943 466.46616943 175.34483887 465.68233887 174.74975586 464.87475586 C173.58379194 463.29231815 172.41793896 461.70979869 171.25219727 460.12719727 C168.32568557 456.15448113 165.39722466 452.18323006 162.46484375 448.21484375 C156.22528928 439.76659743 150.0293578 431.28993416 143.89208984 422.76708984 C138.24281917 414.93122514 132.50687108 407.16007146 126.76611328 399.39111328 C123.84043897 395.43008838 120.92049694 391.46484283 118 387.5 C116.8333611 385.91664621 115.66669442 384.33331288 114.5 382.75 C104 368.5 104 368.5 93.5 354.25 C92.92241943 353.46616943 92.34483887 352.68233887 91.74975586 351.87475586 C90.58379194 350.29231815 89.41793896 348.70979869 88.25219727 347.12719727 C85.32568557 343.15448113 82.39722466 339.18323006 79.46484375 335.21484375 C73.22528928 326.76659743 67.0293578 318.28993416 60.89208984 309.76708984 C55.24281917 301.93122514 49.50687108 294.16007146 43.76611328 286.39111328 C40.2590495 281.64295421 36.75965337 276.88914093 33.2590332 272.13623047 C30.29555897 268.11327581 27.32970907 264.09211181 24.359375 260.07421875 C23.15620581 258.44534514 21.95308029 256.81643927 20.75 255.1875 C20.17088867 254.40463623 19.59177734 253.62177246 18.99511719 252.81518555 C16.28008817 249.13519964 13.59191956 245.44146164 10.96875 241.6953125 C10.50629883 241.03635986 10.04384766 240.37740723 9.56738281 239.69848633 C8.71165281 238.47340956 7.8616898 237.24427684 7.01855469 236.01049805 C6.06090038 234.63848205 5.03684558 233.31319492 4 232 C3.34 232 2.68 232 2 232 C0.68208047 233.57041813 -0.5511366 235.21191505 -1.75 236.875 C-2.55686025 237.97913345 -3.3655775 239.08191139 -4.17578125 240.18359375 C-4.62260254 240.79187012 -5.06942383 241.40014648 -5.52978516 242.02685547 C-8.27348569 245.70911845 -11.11032834 249.31919351 -13.9375 252.9375 C-15.14992013 254.4920467 -16.36216163 256.04673275 -17.57421875 257.6015625 C-18.44892822 258.72353027 -18.44892822 258.72353027 -19.34130859 259.86816406 C-23.25144798 264.89367733 -27.12393254 269.94819207 -31 275 C-37.24233341 283.1358412 -43.51849483 291.24408184 -49.81835938 299.33544922 C-54.90460897 305.87075302 -59.95892306 312.42979639 -65 319 C-71.24233341 327.1358412 -77.51849483 335.24408184 -83.81835938 343.33544922 C-88.90460897 349.87075302 -93.95892306 356.42979639 -99 363 C-105.24233341 371.1358412 -111.51849483 379.24408184 -117.81835938 387.33544922 C-122.90461519 393.87076101 -127.95805933 400.43045147 -133 407 C-135.08579105 409.71301586 -137.17286478 412.42504482 -139.25976562 415.13720703 C-141.29441368 417.78177486 -143.32788256 420.42722447 -145.359375 423.07421875 C-150.8180518 430.18298576 -156.31215481 437.26343622 -161.81835938 444.33544922 C-166.90460897 450.87075302 -171.95892306 457.42979639 -177 464 C-183.24233341 472.1358412 -189.51849483 480.24408184 -195.81835938 488.33544922 C-200.90460897 494.87075302 -205.95892306 501.42979639 -211 508 C-217.24233341 516.1358412 -223.51849483 524.24408184 -229.81835938 532.33544922 C-234.90460897 538.87075302 -239.95892306 545.42979639 -245 552 C-251.24233341 560.1358412 -257.51849483 568.24408184 -263.81835938 576.33544922 C-268.90460897 582.87075302 -273.95892306 589.42979639 -279 596 C-285.24233341 604.1358412 -291.51849483 612.24408184 -297.81835938 620.33544922 C-302.90461519 626.87076101 -307.95805933 633.43045147 -313 640 C-315.08579105 642.71301586 -317.17286478 645.42504482 -319.25976562 648.13720703 C-321.29441368 650.78177486 -323.32788256 653.42722447 -325.359375 656.07421875 C-326.94464632 658.1386979 -328.55587966 660.18351476 -330.19311523 662.20703125 C-332.26380234 664.86467184 -333.87065237 667.55146229 -335.43481445 670.5324707 C-339.0551791 676.8864447 -342.91676661 682.67409488 -350.13775635 685.01889038 C-359.04048784 686.53375144 -368.05588626 686.25344247 -377.05254745 686.04367828 C-381.09484322 685.96964723 -385.13624343 685.99985107 -389.17895508 686.02294922 C-394.40011853 686.04633361 -399.62055993 686.05877861 -404.84172058 686.02877808 C-419.26122271 685.94731947 -433.66266968 686.170841 -448.078125 686.5078125 C-449.71222415 686.54577061 -449.71222415 686.54577061 -451.3793354 686.58449554 C-455.74554976 686.68648326 -460.11173303 686.7896471 -464.47786808 686.89497757 C-474.98331768 687.14797538 -485.48938761 687.36513937 -495.99576569 687.57552719 C-498.80771307 687.63185586 -501.61964812 687.68876293 -504.43157959 687.74588013 C-508.62104557 687.83096143 -512.81051969 687.91562716 -517 688 C-512.65158659 680.31761026 -512.65158659 680.31761026 -510.0390625 677.046875 C-509.21946045 676.0098645 -509.21946045 676.0098645 -508.38330078 674.9519043 C-507.51294189 673.86196167 -507.51294189 673.86196167 -506.625 672.75 C-501.67776135 666.47490021 -496.83937222 660.1393857 -492.125 653.6875 C-483.89798 642.44591108 -475.42670784 631.39469492 -466.95898438 620.33398438 C-459.31221662 610.34113256 -451.72423198 600.31467904 -444.28857422 590.16357422 C-439.2668024 583.32345221 -434.12374349 576.57990736 -428.96533203 569.8425293 C-424.53576655 564.04619071 -420.18184443 558.20046074 -415.875 552.3125 C-410.78837407 545.36154511 -405.56002815 538.53967974 -400.24511719 531.76220703 C-395.50641149 525.69956768 -390.93325877 519.52671863 -386.390625 513.31640625 C-381.33828487 506.42276883 -376.16156143 499.62915404 -370.96582031 492.84326172 C-366.53617634 487.04661549 -362.18201743 481.20069726 -357.875 475.3125 C-352.78837407 468.36154511 -347.56002815 461.53967974 -342.24511719 454.76220703 C-337.50641149 448.69956768 -332.93325877 442.52671863 -328.390625 436.31640625 C-323.99768866 430.32248867 -319.51761322 424.40039004 -315 418.5 C-309.86986396 411.79809333 -304.80145215 405.05768115 -299.8125 398.25 C-293.89346276 390.17677229 -287.84745659 382.20976743 -281.74658203 374.2734375 C-272.81716905 362.65047221 -263.95057485 350.98896803 -255.28930664 339.16455078 C-250.26726454 332.32412188 -245.12399133 325.58023105 -239.96533203 318.8425293 C-235.53576655 313.04619071 -231.18184443 307.20046074 -226.875 301.3125 C-221.78837407 294.36154511 -216.56002815 287.53967974 -211.24511719 280.76220703 C-206.50641149 274.69956768 -201.93325877 268.52671863 -197.390625 262.31640625 C-192.33828487 255.42276883 -187.16156143 248.62915404 -181.96582031 241.84326172 C-177.53617634 236.04661549 -173.18201743 230.20069726 -168.875 224.3125 C-163.78837407 217.36154511 -158.56002815 210.53967974 -153.24511719 203.76220703 C-148.50641149 197.69956768 -143.93325877 191.52671863 -139.390625 185.31640625 C-134.99768899 179.32248912 -130.51763451 173.40037351 -126 167.5 C-120.80635385 160.7155806 -115.67698879 153.89058597 -110.625 147 C-105.65413204 140.22204454 -100.59840546 133.52697178 -95.45214844 126.88085938 C-86.59545857 115.40945071 -77.85389129 103.85706861 -69.29003906 92.16552734 C-64.26772669 85.32479153 -59.12423916 78.58055475 -53.96533203 71.8425293 C-49.53576655 66.04619071 -45.18184443 60.20046074 -40.875 54.3125 C-35.79548309 47.3712597 -30.57539458 40.55814955 -25.26708984 33.79077148 C-19.20355507 26.03439331 -13.39185518 18.09842784 -7.58203125 10.15136719 C-5.0798393 6.74869505 -2.54240039 3.37268881 0 0 Z " fill="#102D4F" transform="translate(934,1657)"/>
<path d="M0 0 C-0.61514775 3.47929139 -1.94397716 5.54719357 -4.10546875 8.31640625 C-4.75193359 9.15300781 -5.39839844 9.98960938 -6.06445312 10.8515625 C-6.76505859 11.74617188 -7.46566406 12.64078125 -8.1875 13.5625 C-9.66145775 15.4690466 -11.13408962 17.3766189 -12.60546875 19.28515625 C-13.34716309 20.24566895 -14.08885742 21.20618164 -14.85302734 22.19580078 C-17.96065782 26.25473229 -20.98464007 30.37231313 -24 34.5 C-29.58556977 42.12815554 -35.29278214 49.65647016 -41.0390625 57.1640625 C-45.42064326 62.89902727 -49.73542958 68.67759563 -54 74.5 C-59.5866242 82.12740017 -65.29276338 89.65644565 -71.0390625 97.1640625 C-75.42064326 102.89902727 -79.73542958 108.67759563 -84 114.5 C-89.5866242 122.12740017 -95.29276338 129.65644565 -101.0390625 137.1640625 C-105.42064326 142.89902727 -109.73542958 148.67759563 -114 154.5 C-119.5866242 162.12740017 -125.29276338 169.65644565 -131.0390625 177.1640625 C-136.00618828 183.66543563 -140.87541965 190.23255271 -145.70874023 196.83374023 C-150.08782606 202.79958611 -154.56077261 208.68881759 -159.0625 214.5625 C-163.97421744 220.97397849 -168.80194203 227.4303223 -173.5 234 C-178.85209178 241.48426653 -184.39143513 248.81072965 -189.98828125 256.11328125 C-194.3894518 261.8634696 -198.72220925 267.65753654 -203 273.5 C-208.5864843 281.1275004 -214.29276587 288.65644889 -220.0390625 296.1640625 C-224.42064326 301.89902727 -228.73542958 307.67759563 -233 313.5 C-238.5866242 321.12740017 -244.29276338 328.65644565 -250.0390625 336.1640625 C-254.42064326 341.89902727 -258.73542958 347.67759563 -263 353.5 C-268.5866242 361.12740017 -274.29276338 368.65644565 -280.0390625 376.1640625 C-284.42064326 381.89902727 -288.73542958 387.67759563 -293 393.5 C-298.5866242 401.12740017 -304.29276338 408.65644565 -310.0390625 416.1640625 C-314.42064326 421.89902727 -318.73542958 427.67759563 -323 433.5 C-328.5866242 441.12740017 -334.29276338 448.65644565 -340.0390625 456.1640625 C-344.42064326 461.89902727 -348.73542958 467.67759563 -353 473.5 C-358.5866242 481.12740017 -364.29276338 488.65644565 -370.0390625 496.1640625 C-374.42064326 501.89902727 -378.73542958 507.67759563 -383 513.5 C-387.92565028 520.22497458 -392.93366232 526.88038993 -398 533.5 C-405.4553294 543.24542339 -412.75129406 553.10033874 -420 563 C-427.90980675 573.80253607 -435.90107083 584.53121949 -444.03857422 595.16357422 C-448.42045195 600.89860116 -452.73529465 606.67741141 -457 612.5 C-462.5866242 620.12740017 -468.29276338 627.65644565 -474.0390625 635.1640625 C-479.0045898 641.6633434 -483.87178773 648.22867507 -488.7043457 654.82714844 C-493.12979075 660.85494226 -497.64446715 666.81047066 -502.1875 672.75 C-504.17224316 675.35143889 -506.15593455 677.95367266 -508.13867188 680.55664062 C-509.3445298 682.13956639 -510.55149157 683.72165212 -511.75976562 685.30273438 C-513.32836371 687.36163456 -514.88482765 689.42907677 -516.4375 691.5 C-516.89213623 692.09264648 -517.34677246 692.68529297 -517.81518555 693.29589844 C-519.59057392 695.68446336 -520.91649297 697.52505375 -521.4375 700.48828125 C-522.31514301 704.40720108 -524.90951125 706.76491977 -527.5625 709.6875 C-528.66532305 710.93638801 -529.76688267 712.1863928 -530.8671875 713.4375 C-531.40569336 714.0459375 -531.94419922 714.654375 -532.49902344 715.28125 C-535.13174994 718.29595309 -537.59605331 721.43963765 -540.078125 724.578125 C-543.66377294 729.09662444 -547.34152315 733.54044287 -551 738 C-552.39596765 739.70822358 -553.79179898 741.41655857 -555.1875 743.125 C-559.72363593 748.67004882 -564.27970657 754.19859573 -568.83544922 759.72753906 C-573.56986563 765.4745482 -578.28979017 771.23312713 -583 777 C-588.9208741 784.24913103 -594.86334549 791.48005823 -600.81567383 798.70336914 C-605.55686677 804.45826349 -610.28444503 810.22406891 -615 816 C-619.44563528 811.84465807 -622.93669023 807.232691 -626.5 802.3125 C-627.11093506 801.475979 -627.72187012 800.63945801 -628.35131836 799.77758789 C-630.23943916 797.18881152 -632.12072963 794.59520648 -634 792 C-634.56348145 791.22301758 -635.12696289 790.44603516 -635.70751953 789.64550781 C-638.94370323 785.18094238 -642.16964261 780.7090766 -645.39111328 776.23388672 C-648.09012128 772.48640216 -650.79538884 768.74344155 -653.5 765 C-654.58336304 763.50002146 -655.66669638 762.00002146 -656.75 760.5 C-657.28625 759.7575 -657.8225 759.015 -658.375 758.25 C-663.25 751.5 -663.25 751.5 -664.87475586 749.25024414 C-665.95878416 747.7493445 -667.04293142 746.24853078 -668.12719727 744.74780273 C-670.82587655 741.01226033 -673.52251312 737.27527746 -676.21484375 733.53515625 C-681.82903178 725.74084153 -687.47885383 717.975464 -693.1875 710.25 C-698.00286929 703.73277127 -702.75864473 697.17886685 -707.453125 690.57421875 C-712.03990213 684.12474489 -716.69333353 677.72292607 -721.33105469 671.31005859 C-722.96518299 669.04819171 -724.5963713 666.78423692 -726.2265625 664.51953125 C-731.83648065 656.73015904 -737.48272122 648.9702303 -743.1875 641.25 C-748.00286929 634.73277127 -752.75864473 628.17886685 -757.453125 621.57421875 C-762.03990213 615.12474489 -766.69333353 608.72292607 -771.33105469 602.31005859 C-772.96518299 600.04819171 -774.5963713 597.78423692 -776.2265625 595.51953125 C-781.83648065 587.73015904 -787.48272122 579.9702303 -793.1875 572.25 C-798.00286929 565.73277127 -802.75864473 559.17886685 -807.453125 552.57421875 C-812.03990213 546.12474489 -816.69333353 539.72292607 -821.33105469 533.31005859 C-822.96518299 531.04819171 -824.5963713 528.78423692 -826.2265625 526.51953125 C-831.83648065 518.73015904 -837.48272122 510.9702303 -843.1875 503.25 C-848.00286929 496.73277127 -852.75864473 490.17886685 -857.453125 483.57421875 C-862.03990213 477.12474489 -866.69333353 470.72292607 -871.33105469 464.31005859 C-872.96518299 462.04819171 -874.5963713 459.78423692 -876.2265625 457.51953125 C-881.83648065 449.73015904 -887.48272122 441.9702303 -893.1875 434.25 C-898.00286929 427.73277127 -902.75864473 421.17886685 -907.453125 414.57421875 C-912.03990213 408.12474489 -916.69333353 401.72292607 -921.33105469 395.31005859 C-922.96518299 393.04819171 -924.5963713 390.78423692 -926.2265625 388.51953125 C-931.83648065 380.73015904 -937.48272122 372.9702303 -943.1875 365.25 C-948.00286929 358.73277127 -952.75864473 352.17886685 -957.453125 345.57421875 C-962.03990213 339.12474489 -966.69333353 332.72292607 -971.33105469 326.31005859 C-972.96518299 324.04819171 -974.5963713 321.78423692 -976.2265625 319.51953125 C-981.77549973 311.8146913 -987.35823874 304.1371894 -993 296.5 C-999.19011119 288.12051542 -1005.30474309 279.68892637 -1011.39111328 271.23388672 C-1014.09012128 267.48640216 -1016.79538884 263.74344155 -1019.5 260 C-1020.58336304 258.50002146 -1021.66669638 257.00002146 -1022.75 255.5 C-1023.554375 254.38625 -1023.554375 254.38625 -1024.375 253.25 C-1029.25 246.5 -1029.25 246.5 -1030.8762207 244.24829102 C-1031.95546124 242.75397045 -1033.03472542 241.25966696 -1034.11401367 239.76538086 C-1036.88516469 235.9286279 -1039.65585687 232.09154488 -1042.42578125 228.25390625 C-1048.26937147 220.15866508 -1054.1181693 212.0675261 -1060 204 C-1056.17694807 202.56247456 -1053.70872701 203.47439649 -1049.91357422 204.74389648 C-1048.67182434 205.1534407 -1047.43007446 205.56298492 -1046.1506958 205.98493958 C-1044.78531161 206.44684885 -1043.41997699 206.90890465 -1042.0546875 207.37109375 C-1040.6291282 207.84506541 -1039.20323766 208.3180418 -1037.77703857 208.79008484 C-1034.73132628 209.80015526 -1031.68778778 210.81643672 -1028.64581299 211.83770752 C-1023.83947644 213.45105642 -1019.02849936 215.05020529 -1014.21630859 216.64599609 C-1013.41567049 216.91152786 -1012.61503239 217.17705963 -1011.79013252 217.45063782 C-1010.17352777 217.98675736 -1008.55690804 218.52283173 -1006.94027328 219.05886078 C-1004.5110597 219.86479587 -1002.0822832 220.67203651 -999.65359497 221.47955322 C-986.67479759 225.7924651 -973.66136654 229.98933737 -960.625 234.125 C-947.21744423 238.38625245 -933.82694895 242.69615341 -920.4609375 247.0859375 C-919.45397512 247.41653388 -919.45397512 247.41653388 -918.42667007 247.75380898 C-911.57423648 250.00399978 -904.72347527 252.25912997 -897.87690926 254.52711582 C-894.51240072 255.64132813 -891.14709517 256.75311356 -887.78125 257.86328125 C-887.11976833 258.08146704 -886.45828667 258.29965282 -885.7767601 258.5244503 C-876.25270961 261.66029574 -866.69369344 264.64645921 -857.09375 267.54296875 C-854.76804509 268.25330385 -852.44251946 268.96422621 -850.1171875 269.67578125 C-845.83019609 270.98760312 -841.53358544 272.25577925 -837.2265625 273.5 C-826.77577656 276.62889489 -819.56878847 279.00944735 -814 289 C-812.94314643 290.53098773 -811.87560718 292.0546609 -810.796875 293.5703125 C-809.77819214 295.08649164 -808.76262773 296.60477008 -807.75 298.125 C-803.64835867 304.20575499 -799.45010215 310.16939171 -795 316 C-790.0483762 322.49267372 -785.42666554 329.16909114 -780.85546875 335.93359375 C-777.37054669 341.06532862 -773.76119918 346.06776783 -770 351 C-765.04866775 357.49290799 -760.42667874 364.1690716 -755.85546875 370.93359375 C-752.37054669 376.06532862 -748.76119918 381.06776783 -745 386 C-740.04866775 392.49290799 -735.42667874 399.1690716 -730.85546875 405.93359375 C-727.37054669 411.06532862 -723.76119918 416.06776783 -720 421 C-715.64340157 426.71300639 -711.52264044 432.54728066 -707.5 438.5 C-702.97156792 445.200974 -698.27330066 451.72103542 -693.37670898 458.15673828 C-689.49109481 463.28592819 -685.82807647 468.54073993 -682.2121582 473.86230469 C-678.21724872 479.72673203 -674.07533553 485.47665531 -669.90649414 491.21826172 C-666.23083791 496.28457471 -662.59918454 501.37911233 -659 506.5 C-654.87622425 512.36497085 -650.70685618 518.19433862 -646.5 524 C-641.79699149 530.49037517 -637.15102377 537.0176766 -632.54150391 543.57470703 C-628.14276181 549.82170917 -623.67384971 556.01686342 -619.1875 562.20117188 C-618.66929687 562.91595703 -618.15109375 563.63074219 -617.6171875 564.3671875 C-617.15940918 564.99737793 -616.70163086 565.62756836 -616.22998047 566.27685547 C-615.12187193 567.82926318 -614.05799145 569.41301282 -613 571 C-605.91773052 562.44409059 -599.40521114 553.478307 -592.84667969 544.52001953 C-589.90608904 540.50722515 -586.95263007 536.50393903 -584 532.5 C-582.83326665 530.9167158 -581.6666001 529.33338238 -580.5 527.75 C-578.16666667 524.58333333 -575.83333333 521.41666667 -573.5 518.25 C-572.92258057 517.46633057 -572.34516113 516.68266113 -571.75024414 515.87524414 C-570.58287469 514.29101519 -569.41539412 512.70686812 -568.24780273 511.12280273 C-565.34097443 507.1788343 -562.4360552 503.23348838 -559.53515625 499.28515625 C-552.94076398 490.31440641 -546.29782277 481.38265197 -539.60791016 472.48291016 C-533.5975069 464.47993602 -527.65982078 456.42450924 -521.73388672 448.35888672 C-518.82628379 444.40320388 -515.91289158 440.45178908 -513 436.5 C-509.47427063 431.71652547 -505.94961073 426.93228047 -502.4296875 422.14453125 C-496.50190275 414.08482392 -490.54832033 406.04675097 -484.53417969 398.05126953 C-478.89690914 390.5479322 -473.34128721 382.98469459 -467.78222656 375.42333984 C-464.27681517 370.65694074 -460.76528965 365.89504464 -457.25488281 361.13232422 C-454.31110087 357.13789679 -451.36886014 353.14235181 -448.4296875 349.14453125 C-442.50190275 341.08482392 -436.54832033 333.04675097 -430.53417969 325.05126953 C-424.89690914 317.5479322 -419.34128721 309.98469459 -413.78222656 302.42333984 C-410.27464562 297.65399074 -406.7610183 292.88909438 -403.24829102 288.12353516 C-400.34134427 284.17929 -397.43622871 280.23372455 -394.53515625 276.28515625 C-387.94076398 267.31440641 -381.29782277 258.38265197 -374.60791016 249.48291016 C-368.5975069 241.47993602 -362.65982078 233.42450924 -356.73388672 225.35888672 C-353.82628379 221.40320388 -350.91289158 217.45178908 -348 213.5 C-344.47427063 208.71652547 -340.94961073 203.93228047 -337.4296875 199.14453125 C-331.50190275 191.08482392 -325.54832033 183.04675097 -319.53417969 175.05126953 C-313.89690914 167.5479322 -308.34128721 159.98469459 -302.78222656 152.42333984 C-299.27681517 147.65694074 -295.76528965 142.89504464 -292.25488281 138.13232422 C-289.31110087 134.13789679 -286.36886014 130.14235181 -283.4296875 126.14453125 C-277.50190275 118.08482392 -271.54832033 110.04675097 -265.53417969 102.05126953 C-259.89690914 94.5479322 -254.34128721 86.98469459 -248.78222656 79.42333984 C-245.27681517 74.65694074 -241.76528965 69.89504464 -238.25488281 65.13232422 C-235.31110087 61.13789679 -232.36886014 57.14235181 -229.4296875 53.14453125 C-222.46023275 43.66832562 -215.44769905 34.22678402 -208.37402344 24.828125 C-207.00945496 23.01257974 -205.64858927 21.1943229 -204.2890625 19.375 C-203.86923096 18.81353271 -203.44939941 18.25206543 -203.0168457 17.67358398 C-201.89238972 16.16937052 -200.76844106 14.66477785 -199.64453125 13.16015625 C-198 11 -198 11 -197 10 C-194.50632811 9.77856554 -192.03424741 9.62008068 -189.53494263 9.50010681 C-188.74399574 9.45841686 -187.95304886 9.41672691 -187.13813388 9.37377363 C-184.46746489 9.23417429 -181.79649984 9.10137737 -179.12548828 8.96850586 C-177.21888172 8.87024154 -175.31229644 8.77156354 -173.4057312 8.67250061 C-168.21175193 8.40383341 -163.01748955 8.14104795 -157.82315683 7.87931514 C-152.39779531 7.60499622 -146.97270215 7.32546979 -141.5475769 7.04652405 C-132.43307871 6.57861362 -123.31841023 6.11415229 -114.20361328 5.65209961 C-101.34029816 5.00001774 -88.47730924 4.34167205 -75.61437631 3.68210018 C-65.64141807 3.17094893 -55.66837141 2.66152637 -45.6953125 2.15234375 C-44.08665243 2.07018148 -44.08665243 2.07018148 -42.44549417 1.98635936 C-36.28468424 1.67179285 -30.12383146 1.35808997 -23.9629097 1.04572105 C-22.09358922 0.95084063 -20.22428173 0.85570371 -18.3549881 0.76029587 C-15.80970292 0.63044576 -13.2643715 0.50154438 -10.71902466 0.37290955 C-9.97360133 0.33468218 -9.22817801 0.29645482 -8.4601661 0.25706905 C-5.63588902 0.11518971 -2.82843078 0 0 0 Z " fill="#102D4F" transform="translate(1526,35)"/>
<path d="M0 0 C3.50948065 -0.26906519 6.02053663 -0.41805852 8.90820312 1.75610352 C10.65082866 3.76525441 12.10857564 5.82997687 13.56445312 8.05541992 C14.6747043 9.62733541 15.78538549 11.19894727 16.89648438 12.77026367 C17.43225098 13.55256348 17.96801758 14.33486328 18.52001953 15.14086914 C20.65579582 18.22062748 22.94091027 21.16890422 25.25195312 24.11791992 C27.64040886 27.21946196 30.02858009 30.3211835 32.41210938 33.42651367 C37.21010072 39.67560484 42.03456177 45.90316409 46.87695312 52.11791992 C53.16140253 60.18547072 59.3809125 68.30109271 65.58447266 76.4309082 C69.39698852 81.42076317 73.23297493 86.3926236 77.06445312 91.36791992 C78.73140605 93.53436643 80.39792726 95.70114489 82.06445312 97.86791992 C82.8977786 98.9512593 83.73111192 100.03459264 84.56445312 101.11791992 C129.56445312 159.61791992 129.56445312 159.61791992 130.81347656 161.24169922 C131.65000223 162.32914993 132.48659115 163.41655199 133.32324219 164.50390625 C135.35824601 167.1488578 137.39201845 169.79473104 139.42382812 172.44213867 C144.21820408 178.68579494 149.03856401 184.90830059 153.87695312 191.11791992 C160.16140253 199.18547072 166.3809125 207.30109271 172.58447266 215.4309082 C176.39698852 220.42076317 180.23297493 225.3926236 184.06445312 230.36791992 C185.73140605 232.53436643 187.39792726 234.70114489 189.06445312 236.86791992 C189.8977786 237.9512593 190.73111192 239.03459264 191.56445312 240.11791992 C236.56445313 298.61791992 236.56445313 298.61791992 237.81347656 300.24169922 C238.65000223 301.32914993 239.48659115 302.41655199 240.32324219 303.50390625 C242.35824601 306.1488578 244.39201845 308.79473104 246.42382812 311.44213867 C251.21820408 317.68579494 256.03856401 323.90830059 260.87695312 330.11791992 C267.16140253 338.18547072 273.3809125 346.30109271 279.58447266 354.4309082 C283.39698852 359.42076317 287.23297493 364.3926236 291.06445312 369.36791992 C292.73140605 371.53436643 294.39792726 373.70114489 296.06445312 375.86791992 C296.8977786 376.9512593 297.73111192 378.03459264 298.56445312 379.11791992 C343.56445312 437.61791992 343.56445312 437.61791992 344.81347656 439.24169922 C345.65000223 440.32914993 346.48659115 441.41655199 347.32324219 442.50390625 C349.35824601 445.1488578 351.39201845 447.79473104 353.42382812 450.44213867 C358.21820408 456.68579494 363.03856401 462.90830059 367.87695312 469.11791992 C374.16140253 477.18547072 380.3809125 485.30109271 386.58447266 493.4309082 C390.39698852 498.42076317 394.23297493 503.3926236 398.06445312 508.36791992 C399.73140605 510.53436643 401.39792726 512.70114489 403.06445312 514.86791992 C403.8977786 515.9512593 404.73111192 517.03459264 405.56445312 518.11791992 C450.56445313 576.61791993 450.56445313 576.61791993 451.81347656 578.24169922 C452.65000223 579.32914993 453.48659115 580.41655199 454.32324219 581.50390625 C456.35824601 584.1488578 458.39201845 586.79473104 460.42382812 589.44213867 C465.21820408 595.68579494 470.03856401 601.90830059 474.87695312 608.11791992 C481.16140253 616.18547072 487.3809125 624.30109271 493.58447266 632.4309082 C497.39698852 637.42076317 501.23297493 642.3926236 505.06445312 647.36791992 C506.73140605 649.53436643 508.39792726 651.70114489 510.06445312 653.86791992 C510.8977786 654.9512593 511.73111192 656.03459264 512.56445312 657.11791992 C567.56445313 728.61791993 567.56445313 728.61791993 568.81347656 730.24169922 C569.65000223 731.32914993 570.48659115 732.41655199 571.32324219 733.50390625 C573.35824601 736.1488578 575.39201845 738.79473104 577.42382812 741.44213867 C582.21820408 747.68579494 587.03856401 753.90830059 591.87695312 760.11791992 C598.16140253 768.18547072 604.3809125 776.30109271 610.58447266 784.4309082 C614.39698852 789.42076317 618.23297493 794.3926236 622.06445312 799.36791992 C623.73140605 801.53436643 625.39792726 803.70114489 627.06445312 805.86791992 C627.8977786 806.9512593 628.73111192 808.03459264 629.56445312 809.11791992 C674.56445312 867.61791992 674.56445312 867.61791992 675.81347656 869.24169922 C676.65000223 870.32914993 677.48659115 871.41655199 678.32324219 872.50390625 C680.35824601 875.1488578 682.39201845 877.79473104 684.42382812 880.44213867 C689.21820408 886.68579494 694.03856401 892.90830059 698.87695312 899.11791992 C705.16140253 907.18547072 711.3809125 915.30109271 717.58447266 923.4309082 C721.39698852 928.42076317 725.23297493 933.3926236 729.06445312 938.36791992 C730.73140605 940.53436643 732.39792726 942.70114489 734.06445312 944.86791992 C734.8977786 945.9512593 735.73111192 947.03459264 736.56445312 948.11791992 C741.56445312 954.61791992 746.56445313 961.11791992 751.56445312 967.61791992 C751.97743652 968.15473389 752.39041992 968.69154785 752.81591797 969.24462891 C753.6446205 970.32207184 754.4730733 971.3997069 755.30126953 972.47753906 C757.45338855 975.27766714 759.61045837 978.07377707 761.77539062 980.86401367 C762.22140625 981.44022461 762.66742187 982.01643555 763.12695312 982.61010742 C764.36261961 984.20617664 765.60019229 985.80076957 766.83789062 987.39526367 C773.06445312 995.7082708 773.06445312 995.7082708 773.06445312 998.36791992 C772.40445313 999.02791992 771.74445312 999.68791992 771.06445312 1000.36791992 C770.05040055 1001.69059719 769.05177054 1003.02516823 768.06445312 1004.36791992 C763.56445312 1010.36791992 763.56445312 1010.36791992 759.06445312 1016.36791992 C758.41476562 1017.26510742 758.41476562 1017.26510742 757.75195312 1018.18041992 C756.34188282 1020.00828883 754.88819923 1021.73795013 753.37304688 1023.47729492 C749.92825627 1027.48558042 746.67324326 1031.62612246 743.43945312 1035.80541992 C742.82827637 1036.59327881 742.21709961 1037.3811377 741.58740234 1038.19287109 C737.25181266 1043.79652235 732.97686401 1049.44288348 728.74121094 1055.12231445 C724.59853877 1060.67349516 720.39709685 1066.17838664 716.18945312 1071.68041992 C706.43396171 1084.45202876 696.88766175 1097.37731834 687.51757812 1110.43432617 C686.06445312 1112.36791992 686.06445312 1112.36791992 684.06445312 1114.36791992 C683.72414063 1113.90232666 683.38382813 1113.4367334 683.03320312 1112.95703125 C676.13153555 1103.52574649 669.16813082 1094.148224 662.06445312 1084.86791992 C656.41088741 1077.48152546 650.84975103 1070.03597505 645.35351562 1062.53198242 C640.9916828 1056.59120559 636.54390764 1050.72038732 632.06445312 1044.86791992 C626.41091918 1037.48150201 620.84975119 1030.03597526 615.35351562 1022.53198242 C610.9916828 1016.59120559 606.54390764 1010.72038732 602.06445312 1004.86791992 C596.41091918 997.48150201 590.84975119 990.03597526 585.35351562 982.53198242 C580.9916828 976.59120559 576.54390764 970.72038732 572.06445312 964.86791992 C566.41091918 957.48150201 560.84975119 950.03597526 555.35351562 942.53198242 C550.9916828 936.59120559 546.54390764 930.72038732 542.06445312 924.86791992 C536.9979358 918.2484471 531.99019148 911.59282534 527.06445312 904.86791992 C521.42726283 897.17343743 515.67803516 889.57042836 509.88476562 881.99291992 C505.43547033 876.17262084 501.02252512 870.32720109 496.63769531 864.45825195 C492.52508412 858.96235805 488.35854788 853.50853246 484.18945312 848.05541992 C478.49679637 840.60537103 472.89424528 833.09657565 467.35400391 825.53271484 C462.99207843 819.59164162 458.54408576 813.72062003 454.06445312 807.86791992 C448.41091918 800.48150201 442.84975119 793.03597526 437.35351562 785.53198242 C432.9916828 779.59120559 428.54390764 773.72038732 424.06445312 767.86791992 C418.41091918 760.48150201 412.84975119 753.03597526 407.35351562 745.53198242 C402.9916828 739.59120559 398.54390764 733.72038732 394.06445312 727.86791992 C388.41091918 720.48150201 382.84975119 713.03597526 377.35351562 705.53198242 C372.9916828 699.59120559 368.54390764 693.72038732 364.06445312 687.86791992 C358.41091918 680.48150201 352.84975119 673.03597526 347.35351562 665.53198242 C342.9916828 659.59120559 338.54390764 653.72038732 334.06445312 647.86791992 C328.41091918 640.48150201 322.84975119 633.03597526 317.35351562 625.53198242 C312.9916828 619.59120559 308.54390764 613.72038732 304.06445312 607.86791992 C298.41091918 600.48150201 292.84975119 593.03597526 287.35351562 585.53198242 C282.9916828 579.59120559 278.54390764 573.72038732 274.06445312 567.86791992 C268.41091918 560.48150201 262.84975119 553.03597526 257.35351562 545.53198242 C252.9916828 539.59120559 248.54390764 533.72038732 244.06445312 527.86791992 C238.41091918 520.48150201 232.84975119 513.03597526 227.35351562 505.53198242 C222.9916828 499.59120559 218.54390764 493.72038732 214.06445312 487.86791992 C208.41091918 480.48150201 202.84975119 473.03597526 197.35351562 465.53198242 C192.9916828 459.59120559 188.54390764 453.72038732 184.06445312 447.86791992 C178.41091918 440.48150201 172.84975119 433.03597526 167.35351562 425.53198242 C162.9916828 419.59120559 158.54390764 413.72038732 154.06445312 407.86791992 C148.41091918 400.48150201 142.84975119 393.03597526 137.35351562 385.53198242 C132.9916828 379.59120559 128.54390764 373.72038732 124.06445312 367.86791992 C118.41091918 360.48150201 112.84975119 353.03597526 107.35351562 345.53198242 C102.9916828 339.59120559 98.54390764 333.72038732 94.06445312 327.86791992 C88.41091918 320.48150201 82.84975119 313.03597526 77.35351562 305.53198242 C72.9916828 299.59120559 68.54390764 293.72038732 64.06445312 287.86791992 C58.41091918 280.48150201 52.84975119 273.03597526 47.35351562 265.53198242 C42.9916828 259.59120559 38.54390764 253.72038732 34.06445312 247.86791992 C28.41091918 240.48150201 22.84975119 233.03597526 17.35351562 225.53198242 C12.9916828 219.59120559 8.54390764 213.72038732 4.06445312 207.86791992 C-1.58908082 200.48150201 -7.15024881 193.03597526 -12.64648438 185.53198242 C-17.0083172 179.59120559 -21.45609236 173.72038732 -25.93554688 167.86791992 C-31.58908082 160.48150201 -37.15024881 153.03597526 -42.64648438 145.53198242 C-47.0083172 139.59120559 -51.45609236 133.72038732 -55.93554688 127.86791992 C-61.58908082 120.48150201 -67.15024881 113.03597526 -72.64648438 105.53198242 C-77.0083172 99.59120559 -81.45609236 93.72038732 -85.93554688 87.86791992 C-91.58908082 80.48150201 -97.15024881 73.03597526 -102.64648438 65.53198242 C-107.00832832 59.59119045 -111.45675951 53.7209112 -115.93554688 47.86791992 C-121.2796028 40.87063408 -126.60946754 33.86352527 -131.87304688 26.80541992 C-132.47052734 26.01393555 -133.06800781 25.22245117 -133.68359375 24.40698242 C-134.5024707 23.30290039 -134.5024707 23.30290039 -135.33789062 22.17651367 C-135.81734131 21.53512451 -136.29679199 20.89373535 -136.79077148 20.23291016 C-137.99667743 18.26833017 -138.42789181 16.59953028 -138.93554688 14.36791992 C-122.67991402 12.69000836 -106.42426238 11.0122789 -90.16858864 9.33476353 C-82.62003331 8.55578095 -75.07148404 7.77673981 -67.52294922 6.99755859 C-60.94017313 6.31806589 -54.35738547 5.63868532 -47.77458417 4.95943683 C-44.29222565 4.60010465 -40.80987275 4.24071806 -37.32753372 3.88119698 C-33.43077603 3.47889292 -29.53399253 3.0768393 -25.63720703 2.67480469 C-24.49496674 2.55684036 -23.35272644 2.43887604 -22.1758728 2.31733704 C-16.43939499 1.72571132 -10.70233291 1.1417778 -4.96317863 0.57665443 C-3.3064124 0.40609867 -1.65259291 0.20712388 0 0 Z " fill="#DAB34A" transform="translate(184.935546875,144.632080078125)"/>
<path d="M0 0 C-1.63726915 5.22268135 -4.87864602 9.1844051 -8.125 13.5 C-8.74173584 14.32878662 -9.35847168 15.15757324 -9.99389648 16.01147461 C-15.30571685 23.12919403 -20.70568241 30.17978762 -26.10595703 37.23046875 C-30.32809925 42.75808144 -34.45412776 48.34232681 -38.5 54 C-43.85090968 61.4826135 -49.39005949 68.8066131 -54.98388672 76.10888672 C-61.77543554 84.98563163 -68.39719589 93.98245611 -75 103 C-82.92949506 113.82942469 -90.94653214 124.57861544 -99.10888672 135.23388672 C-103.32969357 140.76062365 -107.45500102 146.34354795 -111.5 152 C-116.85090968 159.4826135 -122.39005949 166.8066131 -127.98388672 174.10888672 C-134.77543554 182.98563163 -141.39719589 191.98245611 -148 201 C-155.9987071 211.92394855 -164.08746659 222.76587995 -172.31982422 233.51513672 C-175.96471688 238.28726096 -179.54689583 243.08744284 -183 248 C-187.10586136 253.84120191 -191.40898687 259.51929814 -195.75 265.1875 C-203.29131789 275.03561558 -210.67225347 284.99239189 -218 295 C-225.9987071 305.92394855 -234.08746659 316.76587995 -242.31982422 327.51513672 C-245.96471688 332.28726096 -249.54689583 337.08744284 -253 342 C-257.10586136 347.84120191 -261.40898687 353.51929814 -265.75 359.1875 C-273.29131789 369.03561558 -280.67225347 378.99239189 -288 389 C-295.92949506 399.82942469 -303.94653214 410.57861544 -312.10888672 421.23388672 C-316.32969357 426.76062365 -320.45500102 432.34354795 -324.5 438 C-329.85090968 445.4826135 -335.39005949 452.8066131 -340.98388672 460.10888672 C-347.77543554 468.98563163 -354.39719589 477.98245611 -361 487 C-368.9987071 497.92394855 -377.08746659 508.76587995 -385.31982422 519.51513672 C-388.96471688 524.28726096 -392.54689583 529.08744284 -396 534 C-400.10586136 539.84120191 -404.40898687 545.51929814 -408.75 551.1875 C-416.29131789 561.03561558 -423.67225347 570.99239189 -431 581 C-438.9987071 591.92394855 -447.08746659 602.76587995 -455.31982422 613.51513672 C-458.96471688 618.28726096 -462.54689583 623.08744284 -466 628 C-470.10586136 633.84120191 -474.40898687 639.51929814 -478.75 645.1875 C-486.29131789 655.03561558 -493.67225347 664.99239189 -501 675 C-508.9987071 685.92394855 -517.08746659 696.76587995 -525.31982422 707.51513672 C-528.96471688 712.28726096 -532.54689583 717.08744284 -536 722 C-540.10586136 727.84120191 -544.40898687 733.51929814 -548.75 739.1875 C-555.70248204 748.26666198 -562.52458271 757.4324452 -569.28222656 766.65722656 C-577.43118164 777.77112265 -577.43118164 777.77112265 -579.55198669 780.48869801 C-582.64748325 784.52971804 -585.27448597 788.3435324 -587.31375122 793.01875305 C-590.16754513 798.91684095 -593.3140871 803.54993362 -599 807 C-611.13880225 810.33708236 -624.30427131 809.27438213 -636.76675177 808.92648482 C-641.7737111 808.80698146 -646.78092766 808.79649389 -651.78909302 808.77400208 C-661.2537942 808.71515241 -670.71428121 808.5595432 -680.17713368 808.36836177 C-690.95779164 808.1553268 -701.73866062 808.05136288 -712.5209024 807.95614851 C-734.68294595 807.75801996 -756.84120664 807.42425088 -779 807 C-778.0668538 805.59025527 -777.13233612 804.18141831 -776.19726562 802.77294922 C-775.41687927 801.59597977 -775.41687927 801.59597977 -774.62072754 800.39523315 C-772.02357889 796.55697139 -769.2654093 792.84293477 -766.5 789.125 C-765.26169399 787.45184124 -764.02341347 785.77866362 -762.78515625 784.10546875 C-761.84373779 782.83582275 -761.84373779 782.83582275 -760.88330078 781.54052734 C-757.8957183 777.51035061 -754.91531845 773.47489495 -751.9375 769.4375 C-751.35806641 768.65197754 -750.77863281 767.86645508 -750.18164062 767.05712891 C-746.25627886 761.72718937 -742.36808189 756.37161813 -738.5 751 C-732.31898737 742.41640731 -726.05214333 733.89798751 -719.76611328 725.39111328 C-716.84043906 721.43008849 -713.92042722 717.46489406 -711 713.5 C-707.49111076 708.73618529 -703.98102197 703.97328202 -700.46484375 699.21484375 C-694.77035401 691.50460543 -689.10117057 683.77836411 -683.5 676 C-676.15975779 665.80658134 -668.69545642 655.70598709 -661.22949219 645.60449219 C-654.94498265 637.09906265 -648.67980365 628.58191379 -642.5 620 C-635.15975779 609.80658134 -627.69545642 599.70598709 -620.22949219 589.60449219 C-613.94498265 581.09906265 -607.67980365 572.58191379 -601.5 564 C-595.31898737 555.41640731 -589.05214333 546.89798751 -582.76611328 538.39111328 C-579.84043906 534.43008849 -576.92042722 530.46489406 -574 526.5 C-570.49111076 521.73618529 -566.98102197 516.97328202 -563.46484375 512.21484375 C-557.77035401 504.50460543 -552.10117057 496.77836411 -546.5 489 C-539.15975779 478.80658134 -531.69545642 468.70598709 -524.22949219 458.60449219 C-517.94498265 450.09906265 -511.67980365 441.58191379 -505.5 433 C-499.31898737 424.41640731 -493.05214333 415.89798751 -486.76611328 407.39111328 C-483.84043906 403.43008849 -480.92042722 399.46489406 -478 395.5 C-474.49111076 390.73618529 -470.98102197 385.97328202 -467.46484375 381.21484375 C-461.77035401 373.50460543 -456.10117057 365.77836411 -450.5 358 C-443.15975779 347.80658134 -435.69545642 337.70598709 -428.22949219 327.60449219 C-421.94498265 319.09906265 -415.67980365 310.58191379 -409.5 302 C-403.31898737 293.41640731 -397.05214333 284.89798751 -390.76611328 276.39111328 C-387.84043906 272.43008849 -384.92042722 268.46489406 -382 264.5 C-378.49111076 259.73618529 -374.98102197 254.97328202 -371.46484375 250.21484375 C-365.77035401 242.50460543 -360.10117057 234.77836411 -354.5 227 C-347.15975779 216.80658134 -339.69545642 206.70598709 -332.22949219 196.60449219 C-325.94498265 188.09906265 -319.67980365 179.58191379 -313.5 171 C-306.15975779 160.80658134 -298.69545642 150.70598709 -291.22949219 140.60449219 C-284.94498265 132.09906265 -278.67980365 123.58191379 -272.5 115 C-266.31898737 106.41640731 -260.05214333 97.89798751 -253.76611328 89.39111328 C-250.84043906 85.43008849 -247.92042722 81.46489406 -245 77.5 C-241.49111076 72.73618529 -237.98102197 67.97328202 -234.46484375 63.21484375 C-228.77035252 55.50460342 -223.10130695 47.77826759 -217.5 40 C-212.80148692 33.47734977 -208.07269702 26.97779388 -203.3125 20.5 C-202.71179687 19.68015625 -202.11109375 18.8603125 -201.4921875 18.015625 C-200.93402344 17.25765625 -200.37585937 16.4996875 -199.80078125 15.71875 C-199.30747314 15.04779297 -198.81416504 14.37683594 -198.3059082 13.68554688 C-196.12953476 10.87648308 -195.49075633 10.06242197 -191.83739185 9.59773064 C-190.44860014 9.51537185 -189.05915669 9.44363226 -187.66938782 9.37985229 C-186.90491008 9.33730792 -186.14043235 9.29476355 -185.35278863 9.25092995 C-182.77766371 9.10994792 -180.20204347 8.98252789 -177.6262207 8.85498047 C-175.78504706 8.75697033 -173.94391719 8.65813485 -172.10282898 8.55853271 C-167.09066202 8.28978769 -162.07795293 8.03278963 -157.06506371 7.7779212 C-151.82291374 7.50951905 -146.58131533 7.23074668 -141.33964539 6.95315552 C-132.53053874 6.48810536 -123.72109461 6.02998193 -114.91137695 5.57666016 C-102.49558594 4.93776174 -90.08049686 4.28595844 -77.66550314 3.63177657 C-69.06416399 3.17902527 -60.46266437 2.72933459 -51.86113334 2.2802453 C-49.77627268 2.17138558 -47.69141618 2.06244619 -45.60656381 1.95342779 C-39.65737249 1.64246325 -33.70808752 1.33342141 -27.75863838 1.02742767 C-25.95709319 0.93451909 -24.15557907 0.84100564 -22.35409927 0.74683762 C-19.89132775 0.61823823 -17.42844981 0.49191123 -14.9655304 0.36618042 C-14.25578625 0.32863518 -13.5460421 0.29108993 -12.81479055 0.25240695 C-8.53887619 0.03719288 -4.28098759 -0.03263519 0 0 Z " fill="#102D4F" transform="translate(1825,0)"/>
</svg>
